<svg xmlns="http://www.w3.org/2000/svg" viewBox="0 0 300 230" role="img" aria-label="Gulf Gate">
  <title>Gulf Gate</title>
  <defs>
    <linearGradient id="gold" x1="90" y1="18" x2="210" y2="138" gradientUnits="userSpaceOnUse">
      <stop offset="0" stop-color="#D7BB80"/>
      <stop offset="0.55" stop-color="#B58B45"/>
      <stop offset="1" stop-color="#8F692F"/>
    </linearGradient>
  </defs>
  <g transform="translate(101 16)">
    <path d="M5 112V57C5 28.5 25.5 8 49 8s44 20.5 44 49v55" fill="none" stroke="url(#gold)" stroke-width="5" stroke-linecap="round"/>
    <path d="M23 112V61c0-16 11.5-27.5 26-27.5S75 45 75 61v51" fill="none" stroke="url(#gold)" stroke-width="3.5" stroke-linecap="round"/>
    <path d="M13 112h72M32 112V58m17 54V46m17 66V58" fill="none" stroke="#191713" stroke-width="3.2" stroke-linecap="round"/>
    <path d="m49 72 7 7-7 7-7-7 7-7Z" fill="#B58B45"/>
  </g>
  <text x="150" y="171" text-anchor="middle" fill="#191713" font-family="Georgia, 'Times New Roman', serif" font-size="31" font-weight="600" letter-spacing="6">GULF GATE</text>
  <text x="150" y="199" text-anchor="middle" fill="#8F692F" font-family="Arial, Helvetica, sans-serif" font-size="11" font-weight="700" letter-spacing="3">DIGITAL ASSET OPERATIONS</text>
</svg>
