<svg xmlns="http://www.w3.org/2000/svg" viewBox="0 0 520 96" role="img" aria-label="Gulf Gate">
  <title>Gulf Gate</title>
  <defs>
    <linearGradient id="gold" x1="8" y1="8" x2="88" y2="88" gradientUnits="userSpaceOnUse">
      <stop offset="0" stop-color="#D7BB80"/>
      <stop offset="0.55" stop-color="#B58B45"/>
      <stop offset="1" stop-color="#8F692F"/>
    </linearGradient>
  </defs>
  <g transform="translate(6 6)">
    <path d="M8 72V38C8 20.4 21.4 8 38 8s30 12.4 30 30v34" fill="none" stroke="url(#gold)" stroke-width="4.2" stroke-linecap="round"/>
    <path d="M21 72V41c0-10.5 7.5-18 17-18s17 7.5 17 18v31" fill="none" stroke="url(#gold)" stroke-width="3" stroke-linecap="round"/>
    <path d="M15 72h46M27 72V39m11 33V31m11 41V39" fill="none" stroke="#191713" stroke-width="2.8" stroke-linecap="round"/>
    <path d="m38 47 5.4 5.4-5.4 5.4-5.4-5.4L38 47Z" fill="#B58B45"/>
  </g>
  <text x="104" y="48" fill="#191713" font-family="Georgia, 'Times New Roman', serif" font-size="35" font-weight="600" letter-spacing="7">GULF GATE</text>
  <text x="108" y="73" fill="#8F692F" font-family="Arial, Helvetica, sans-serif" font-size="11.5" font-weight="700" letter-spacing="3.5">DIGITAL ASSET OPERATIONS</text>
</svg>
